<svg width="99" height="81" viewBox="0 0 99 81" fill="none" xmlns="http://www.w3.org/2000/svg">
<mask id="mask0_19_3688" style="mask-type:alpha" maskUnits="userSpaceOnUse" x="2" y="1" width="96" height="77">
<path d="M4.08222 20.8923C5.2543 10.9684 12.8554 3.80245 22.163 2.97658C29.7257 2.30552 39.492 1.69727 50.0469 1.69727C60.6018 1.69727 70.3681 2.30552 77.9308 2.97658C87.2384 3.80245 94.8395 10.9684 96.0117 20.8923C96.642 26.2298 97.1285 32.5922 97.1285 39.5175C97.1285 46.4428 96.642 52.8052 96.0117 58.1427C94.8395 68.0666 87.2384 75.2327 77.9308 76.0584C70.3681 76.7295 60.6018 77.3378 50.0469 77.3378C39.492 77.3378 29.7257 76.7295 22.163 76.0584C12.8554 75.2327 5.2543 68.0666 4.08222 58.1427C3.45184 52.8052 2.96533 46.4428 2.96533 39.5175C2.96533 32.5922 3.45184 26.2298 4.08222 20.8923Z" fill="#00D0BF"/>
</mask>
<g mask="url(#mask0_19_3688)">
<path d="M97.128 52.124H2.96484V77.3375H97.128V52.124Z" fill="#59C785"/>
<path d="M99.0898 29.0117H1.00317V50.023H99.0898V29.0117Z" fill="#EE5757" stroke="white" stroke-width="2"/>
<path d="M97.128 1.69727H2.96484V26.9108H97.128V1.69727Z" fill="#2C2929"/>
<path d="M52.0085 39.5175L1.00342 1.69727V77.3378L52.0085 39.5175Z" fill="#3F6FEB"/>
<path d="M10.8115 39.5159L17.5891 37.1572V29.5244L21.778 35.6994L28.5556 33.3409L24.3667 39.5159L28.5556 45.6909L21.778 43.3324L17.5892 49.5074L17.5891 41.8746L10.8115 39.5159Z" fill="#FCD95E"/>
</g>
<path d="M21.6974 2.26435C11.6945 3.14931 3.39627 10.8647 2.11621 21.6706C1.4866 26.9859 1 33.3268 1 40.2346C1 47.1424 1.4866 53.4833 2.11621 58.7986C3.39629 69.6046 11.6945 77.32 21.6974 78.2048C29.1904 78.8677 38.872 79.4692 49.3427 79.4692C59.8133 79.4692 69.495 78.8677 76.9879 78.2048C86.9908 77.32 95.2891 69.6046 96.5692 58.7986C97.1988 53.4833 97.6854 47.1424 97.6854 40.2346C97.6854 33.3268 97.1988 26.9859 96.5692 21.6706C95.2891 10.8647 86.9908 3.14931 76.9879 2.26435C69.495 1.60147 59.8133 1 49.3427 1C38.872 1 29.1904 1.60147 21.6974 2.26435Z" stroke="#181820" stroke-opacity="0.6" stroke-width="2"/>
</svg>
