<svg width="99" height="84" viewBox="0 0 99 84" fill="none" xmlns="http://www.w3.org/2000/svg">
<g style="mix-blend-mode:overlay" opacity="0.8">
<mask id="mask0_19_3774" style="mask-type:alpha" maskUnits="userSpaceOnUse" x="2" y="3" width="94" height="78">
<path d="M4.03526 22.6753C5.1906 12.5738 12.6831 5.27957 21.8578 4.43893C29.3124 3.75586 38.9392 3.13672 49.3433 3.13672C59.7474 3.13672 69.3742 3.75586 76.8288 4.43893C86.0035 5.27957 93.496 12.5738 94.6514 22.6753C95.2727 28.1083 95.7523 34.5846 95.7523 41.6338C95.7523 48.6831 95.2727 55.1594 94.6514 60.5924C93.496 70.6938 86.0035 77.9881 76.8288 78.8287C69.3742 79.5118 59.7474 80.1309 49.3433 80.1309C38.9392 80.1309 29.3124 79.5118 21.8578 78.8287C12.6831 77.9881 5.1906 70.6938 4.03526 60.5924C3.41389 55.1594 2.93433 48.6831 2.93433 41.6338C2.93433 34.5846 3.41389 28.1083 4.03526 22.6753Z" fill="#00D0BF"/>
<path d="M49.3435 3.63672C59.7284 3.63673 69.3393 4.25447 76.783 4.93652C85.7086 5.75436 93.025 12.8529 94.155 22.7324C94.7746 28.15 95.2527 34.607 95.2527 41.6338C95.2527 48.6606 94.7746 55.1175 94.155 60.5352C93.025 70.4146 85.7086 77.5133 76.783 78.3311C69.3393 79.0131 59.7284 79.6309 49.3435 79.6309C38.9584 79.6309 29.3468 79.0132 21.9031 78.3311C12.9776 77.5132 5.66191 70.4145 4.53198 60.5352C3.91238 55.1175 3.43433 48.6606 3.43433 41.6338C3.43433 34.6069 3.91238 28.15 4.53198 22.7324C5.66191 12.853 12.9775 5.75449 21.9031 4.93652C29.3468 4.25445 38.9584 3.63672 49.3435 3.63672Z" stroke="#0A0A0C" stroke-opacity="0.6"/>
</mask>
<g mask="url(#mask0_19_3774)">
<path d="M95.7523 -9.68994H2.93433V95.1077H95.7523V-9.68994Z" fill="#EE5757"/>
<path d="M95.2527 -9.18994V94.6079H3.43433V-9.18994H95.2527Z" stroke="#0A0A0C" stroke-opacity="0.6"/>
<path d="M2.93433 -11.833H83.1832L28.0725 92.9647H2.93433V-11.833Z" fill="#59C785"/>
<path d="M82.3562 -11.333L27.7703 92.4648H3.43433V-11.333H82.3562Z" stroke="#0A0A0C" stroke-opacity="0.6"/>
<path d="M62.8798 -1.1377L10.6697 84.4114H35.8079L88.018 -1.1377H62.8798Z" fill="#FCD95E"/>
<path d="M87.1277 -0.637695L35.5271 83.9111H11.5603L63.1599 -0.637695H87.1277Z" stroke="#0A0A0C" stroke-opacity="0.6"/>
</g>
<path d="M21.6974 2.3095C11.6945 3.22607 3.39627 11.217 2.11621 22.4089C1.4866 27.914 1 34.4814 1 41.6358C1 48.7903 1.4866 55.3577 2.11621 60.8628C3.39629 72.0548 11.6945 80.0457 21.6974 80.9621C29.1904 81.6487 38.872 82.2717 49.3427 82.2717C59.8133 82.2717 69.495 81.6487 76.9879 80.9621C86.9908 80.0457 95.2891 72.0548 96.5692 60.8628C97.1988 55.3577 97.6854 48.7903 97.6854 41.6358C97.6854 34.4814 97.1988 27.914 96.5692 22.4089C95.2891 11.217 86.9908 3.22607 76.9879 2.3095C69.495 1.62295 59.8133 1 49.3427 1C38.872 1 29.1904 1.62295 21.6974 2.3095Z" stroke="#0A0A0C" stroke-opacity="0.6" stroke-width="2"/>
</g>
</svg>
