<svg width="101" height="85" viewBox="0 0 101 85" fill="none" xmlns="http://www.w3.org/2000/svg">
<g opacity="0.8">
<mask id="mask0_19_3623" style="mask-type:alpha" maskUnits="userSpaceOnUse" x="2" y="3" width="96" height="79">
<path d="M4.07856 23.0546C5.25064 12.779 12.8517 5.359 22.1594 4.50386C29.722 3.80901 39.4883 3.1792 50.0432 3.1792C60.5981 3.1792 70.3644 3.80901 77.9271 4.50386C87.2347 5.359 94.8358 12.779 96.008 23.0546C96.6383 28.5813 97.1248 35.1693 97.1248 42.34C97.1248 49.5108 96.6383 56.0988 96.008 61.6255C94.8358 71.9011 87.2347 79.3212 77.9271 80.1762C70.3644 80.8711 60.5981 81.5009 50.0432 81.5009C39.4883 81.5009 29.722 80.8711 22.1594 80.1762C12.8517 79.3212 5.25064 71.9011 4.07856 61.6255C3.44818 56.0988 2.96167 49.5108 2.96167 42.34C2.96167 35.1693 3.44818 28.5813 4.07856 23.0546Z" fill="#00D0BF"/>
</mask>
<g mask="url(#mask0_19_3623)">
<path d="M97.1248 68.4487H2.96167V81.5023H97.1248V68.4487Z" fill="#EE5757"/>
<path d="M97.1248 55.3936H2.96167V68.4472H97.1248V55.3936Z" fill="#FCD95E"/>
<path d="M97.1248 42.3379H2.96167V55.3915H97.1248V42.3379Z" fill="#2C2929"/>
<path d="M97.1248 29.2896H2.96167V42.3432H97.1248V29.2896Z" fill="#EE5757"/>
<path d="M50.0421 55.3968C56.5427 55.3968 61.8125 49.5525 61.8125 42.3432C61.8125 35.1339 56.5427 29.2896 50.0421 29.2896C43.5415 29.2896 38.2717 35.1339 38.2717 42.3432C38.2717 49.5525 43.5415 55.3968 50.0421 55.3968Z" fill="white"/>
<path d="M47.9698 32.3437L47.2063 30.7842C47.501 30.4574 47.9967 30.2051 48.7867 30.2051C48.7867 30.2645 48.7064 31.9129 48.7064 31.9129L47.9698 32.3437Z" fill="#D90000" stroke="black" stroke-width="0.0638298"/>
<path d="M48.7053 31.9304L48.8126 30.2075C48.8126 30.2075 50.3928 30.1038 51.2499 31.2472C51.2634 31.2325 50.4063 32.5839 50.4063 32.5839L48.7053 31.9304Z" fill="#FCDC04" stroke="black" stroke-width="0.0638298"/>
<path d="M50.4326 32.5681L51.2093 31.2314C51.7317 31.8404 51.9459 32.2712 52.0263 32.9247C52.0397 32.9395 50.7942 33.2663 50.7942 33.2513C50.7942 33.2365 50.446 32.5829 50.4326 32.5681Z" fill="#D90000" stroke="black" stroke-width="0.0638298"/>
<path d="M48.3593 54.633C48.3593 54.633 49.819 52.7764 52.6583 53.1776C52.2296 52.405 50.8503 52.4942 50.8503 52.4942C50.8503 52.4942 50.4217 48.8851 50.7566 48.7069C51.0912 48.5285 52.5109 48.7217 52.5109 48.7217C52.6983 48.7217 53.0198 48.1574 52.7654 47.801C52.5109 47.4444 51.761 46.0779 52.069 45.8105C52.3769 45.5434 54.0509 45.9591 54.0509 45.9591L49.3235 39.2459C49.3235 39.2459 48.8413 36.7211 49.8057 35.5032C50.9708 34.4337 50.8503 33.2752 50.8101 33.2902C50.6492 32.1166 49.0424 31.2701 47.9576 32.3544C47.3147 33.2158 47.7431 33.8693 47.7431 33.8693C47.7431 33.8693 46.0559 34.3743 45.9888 34.701C45.9219 35.0278 47.8905 34.6416 47.8905 34.6416L47.7029 36.1417C47.7029 36.1417 43.8728 40.0034 46.8056 43.3451C46.8325 43.3304 46.8994 43.1966 46.8994 43.1966C46.8994 43.1966 47.9307 44.6077 49.0153 44.9194C50.0333 46.0779 49.9395 45.8997 49.9395 45.8997C49.9395 45.8997 50.1404 47.7266 49.953 48.083C49.6984 47.994 47.1005 47.89 46.7121 48.0534C46.3638 48.1722 45.0246 48.098 45.3594 50.519C45.6137 49.8654 45.8414 49.2861 45.8414 49.2861C45.8414 49.2861 45.8012 50.1624 46.1227 50.4744C46.0692 49.5534 46.4307 48.9297 46.4307 48.9297C46.4307 48.9297 46.4978 49.9396 46.6985 50.088C46.8994 50.2366 46.8994 48.4543 48.0111 48.6029C49.1226 48.7515 49.9262 48.7069 49.9262 48.7069C49.9262 48.7069 50.3012 52.1972 50.1806 52.524C49.3771 52.316 47.462 52.613 47.3414 53.1478C48.4662 53.0736 48.9886 53.222 48.9886 53.222C48.9886 53.222 48.078 54.1131 48.3593 54.633Z" fill="black" stroke="black" stroke-width="0.0638298"/>
<path d="M48.8101 35.5913C48.8101 35.5913 46.023 38.9981 47.2254 41.6051C47.2895 41.2416 47.2615 41.0131 47.3017 41.0279C47.2348 40.9833 47.6474 41.3416 47.616 41.2718C47.6248 41.0834 47.4902 40.6794 47.4902 40.6794C47.616 40.7142 47.7417 40.7492 47.8675 40.784C47.7941 40.6331 47.7207 40.4821 47.6474 40.3309C47.8255 40.3541 48.0036 40.3774 48.1817 40.4007C48.1817 40.4007 47.993 39.8431 48.056 39.8431C48.1188 39.8431 48.4958 39.8779 48.4958 39.8779C47.7033 38.3004 48.4511 36.9904 48.8101 35.5913Z" fill="#9CA69C" stroke="#9CA69C" stroke-width="0.0638298"/>
<path d="M49.7792 32.6743C49.7792 32.6743 49.9266 33.8476 49.3508 34.1892C49.257 34.2636 48.8953 34.3972 48.949 34.635C49.0159 34.9615 49.1766 34.9021 49.4043 34.8427C50.0068 34.724 50.7032 33.2981 49.7792 32.6743Z" fill="#9CA69C" stroke="#9CA69C" stroke-width="0.0638298"/>
<path d="M48.5327 33.9393C48.6579 33.9393 48.7595 33.8266 48.7595 33.688C48.7595 33.5492 48.6579 33.4365 48.5327 33.4365C48.4078 33.4365 48.3062 33.5492 48.3062 33.688C48.3062 33.8266 48.4078 33.9393 48.5327 33.9393Z" fill="white"/>
<path d="M47.8467 34.6602C47.6993 34.7937 46.9227 35.6851 47.686 36.0119C48.4762 35.7741 48.262 35.6107 48.436 35.4177C48.4405 35.0167 48.0432 34.9127 47.8467 34.6602Z" fill="#D90000" stroke="black" stroke-width="0.0638298"/>
<path d="M49.5364 43.0771C49.4962 43.2703 49.3222 43.9833 49.5631 44.5326C50.2328 44.2209 50.5408 44.3098 50.7686 44.4732C50.2195 43.9833 50.0052 43.7753 49.5364 43.0771Z" fill="#9CA69C" stroke="#9CA69C" stroke-width="0.0638298"/>
<path d="M50.6868 46.4556L50.727 48.119C50.727 48.119 51.2492 48.223 51.4903 48.119C51.7314 48.015 51.477 46.9605 50.6868 46.4556Z" fill="white" stroke="white" stroke-width="0.0638298"/>
<path d="M54.4769 46.6629C54.4769 46.6629 53.5127 44.0787 51.0483 43.4251C48.5842 42.7716 48.9055 39.8606 49.1064 39.6822C49.2137 39.4296 49.294 39.0437 50.0037 39.4151C50.7137 39.7862 53.9813 41.6131 54.45 41.7023C54.9188 41.7912 54.5171 46.7222 54.4769 46.6629Z" fill="#9CA69C" stroke="black" stroke-width="0.0638298"/>
<path d="M52.1346 43.4029C52.0944 43.4325 55.4292 45.5861 54.4248 47.4426C55.3756 46.7446 55.0676 45.5267 55.0676 45.5267C55.0676 45.5267 55.8443 47.7696 53.9559 48.8685C54.157 49.0616 54.291 49.017 54.291 49.017L53.9694 49.3736C53.9694 49.3736 53.8221 49.6408 55.0943 48.9577C54.7461 49.2696 54.7194 49.4922 54.7194 49.4922C54.7194 49.4922 54.813 49.7894 55.6434 48.9872C54.9739 49.7894 54.8265 50.2051 54.8265 50.1903C56.6345 50.0122 60.5719 43.4919 53.581 41.561C53.9561 41.9918 53.9024 41.9324 53.9024 41.9324L52.1346 43.4029Z" fill="#D90000" stroke="black" stroke-width="0.0638298"/>
<path d="M52.2812 42.7651C52.7368 43.1217 52.8972 43.2405 52.951 43.4186C52.5357 43.3149 52.1608 43.3444 52.1608 43.3444C52.1608 43.3444 51.2635 42.3939 51.1028 42.3195C50.9822 42.3195 50.2858 41.8296 50.2858 41.8296C49.9378 41.6364 49.6162 40.2997 50.9019 40.6859C52.2277 41.3838 52.4152 41.4434 52.4152 41.4434C52.942 41.6264 53.4687 41.8098 53.9956 41.993C54.2991 42.3691 54.6026 42.7455 54.9062 43.1217C54.9062 43.1217 53.2858 42.2305 53.0848 42.2155C53.5267 42.6165 53.7814 43.166 53.7814 43.166C53.2678 43.0027 52.8215 42.8543 52.2812 42.7651Z" fill="white" stroke="black" stroke-width="0.0638298"/>
<path d="M45.9734 34.7958C45.9734 34.7958 47.5269 34.38 47.7144 34.4394L45.9734 34.7958Z" fill="black"/>
<path d="M45.9734 34.7958C45.9734 34.7958 47.5269 34.38 47.7144 34.4394" stroke="white" stroke-width="0.0638298"/>
<path d="M97.1248 16.2354H2.96167V29.289H97.1248V16.2354Z" fill="#FCD95E"/>
<path d="M97.1248 3.1792H2.96167V16.2328H97.1248V3.1792Z" fill="#2C2929"/>
</g>
<path d="M21.9974 2.33208C11.8495 3.26445 3.431 11.3931 2.13239 22.778C1.49365 28.378 1 35.0586 1 42.3365C1 49.6143 1.49365 56.2949 2.13239 61.8949C3.43102 73.2798 11.8495 81.4085 21.9974 82.3408C29.5989 83.0391 39.4209 83.6729 50.0433 83.6729C60.6657 83.6729 70.4877 83.0391 78.0892 82.3408C88.237 81.4085 96.6556 73.2798 97.9543 61.8949C98.593 56.2949 99.0866 49.6143 99.0866 42.3365C99.0866 35.0586 98.593 28.378 97.9543 22.778C96.6556 11.3931 88.237 3.26445 78.0892 2.33208C70.4877 1.63369 60.6657 1 50.0433 1C39.4209 1 29.5989 1.63369 21.9974 2.33208Z" stroke="#181820" stroke-opacity="0.6" stroke-width="2"/>
</g>
</svg>
