<svg width="95" height="81" viewBox="0 0 95 81" fill="none" xmlns="http://www.w3.org/2000/svg">
<g opacity="0.8">
<mask id="mask0_19_3728" style="mask-type:alpha" maskUnits="userSpaceOnUse" x="2" y="3" width="90" height="75">
<path d="M3.90024 21.8294C5.00534 12.1238 12.1721 5.1155 20.9479 4.30781C28.0784 3.65151 37.2866 3.05664 47.2384 3.05664C57.1901 3.05664 66.3983 3.65151 73.5289 4.30781C82.3046 5.1155 89.4714 12.1238 90.5766 21.8294C91.1709 27.0494 91.6296 33.2719 91.6296 40.0448C91.6296 46.8177 91.1709 53.0402 90.5766 58.2602C89.4714 67.9657 82.3046 74.9741 73.5289 75.7817C66.3983 76.4381 57.1901 77.0329 47.2384 77.0329C37.2866 77.0329 28.0784 76.4381 20.9479 75.7817C12.1721 74.9741 5.00534 67.9657 3.90024 58.2602C3.30588 53.0402 2.84717 46.8177 2.84717 40.0448C2.84717 33.2719 3.30588 27.0494 3.90024 21.8294Z" fill="#00D0BF"/>
</mask>
<g mask="url(#mask0_19_3728)">
<path d="M2.84717 3.05664H91.6296V77.0329H2.84717V3.05664Z" fill="#59C785"/>
<path d="M84.6354 18.1043C84.6354 18.1043 88.972 16.216 89.3923 15.8267C89.5833 16.0603 87.6538 18.4353 83.9094 19.3113C87.31 18.4936 90.2139 15.924 90.8061 16.0018C90.978 16.0408 90.9397 18.5131 83.1451 20.6545C88.5326 19.2139 91.6657 16.5664 91.6276 16.8584C91.6657 16.9168 91.0926 18.9414 86.3739 20.5182C87.6921 20.2067 91.2647 17.9875 91.2264 18.4158C91.3411 18.591 87.7685 23.2629 81.3112 21.7446C86.4695 23.1074 89.8125 19.8173 90.2903 19.8759C90.3857 19.8952 89.3349 22.7568 82.8396 22.9321C85.9536 22.6013 85.0556 22.9126 85.0556 22.9126C85.0556 22.9126 83.2215 24.3726 81.0055 23.3799C82.744 23.8667 82.935 23.886 82.9733 24.0417C82.8586 24.2363 81.4257 24.5283 80.0503 23.7691C81.1583 24.2363 82.1517 24.3142 82.1708 24.4895C82.1517 24.5479 81.445 24.9568 80.8146 24.6648C80.1841 24.3726 74.3762 20.7323 74.3762 20.7323L84.2725 17.968L84.6354 18.1043Z" fill="#FFA654"/>
<path d="M73.0015 27.9497C72.1313 27.9497 72.1072 28.7388 72.1072 28.7388C72.1072 28.7388 72.0355 28.7957 72.0834 29.1781C72.2271 28.9178 72.2989 28.8364 72.2989 28.8364C72.3949 28.8526 72.794 28.9747 73.4247 28.4704C72.8497 29.0805 73.1932 29.3082 73.1932 29.3082C73.1932 29.3082 73.0574 29.7882 73.4965 29.8858C73.3607 29.6906 73.4406 29.5198 73.4406 29.5198C73.4406 29.5198 74.0555 29.4547 74.0155 28.6901C74.0396 29.3813 74.4067 29.5523 74.4067 29.5523C74.4067 29.5523 74.4067 29.9345 74.8059 29.9672C74.5904 29.772 74.6381 29.4709 74.6381 29.4709C74.6381 29.4709 75.1571 29.0885 74.718 28.4377C74.9816 28.283 75.197 27.8521 75.197 27.8521C75.197 27.8521 74.8379 27.6974 74.6701 27.5673C74.5902 27.3963 74.6621 26.4607 74.6621 26.4607L74.4467 25.2485L73.8318 27.1362C73.8557 26.8676 73.8718 27.9497 73.0015 27.9497Z" fill="#FFA654"/>
<path d="M77.3008 25.2254C77.3198 25.245 77.9504 25.9654 78.5617 25.9264C78.7908 25.7318 78.0841 25.3033 78.0841 25.2061C78.3323 25.4398 79.3831 26.3546 80.0517 26.0238C80.3192 25.6344 79.5742 25.6927 78.7527 24.6414C79.3257 25.0308 80.7587 25.8873 81.4273 25.5565C81.714 25.245 79.9371 24.2716 79.3448 23.5125L77.8166 22.7144L75.7341 24.4468L77.3008 25.2254Z" fill="#FFA654"/>
<path d="M74.948 19.311C74.948 19.311 75.6547 18.8827 78.4823 19.0969C78.788 19.1358 80.4118 18.5323 80.9277 18.3571C81.7491 18.2014 84.3663 17.6174 85.0733 17.0723C85.5699 17.0139 84.9393 18.0067 84.3092 18.2403C83.6403 18.5518 81.2142 19.4083 80.3545 19.2915C81.386 19.311 80.813 20.1676 79.0936 19.7587C79.915 20.226 79.6094 20.3039 79.6094 20.3039C79.6094 20.3039 78.1575 20.3817 77.7753 20.0507C78.7497 20.4206 78.3486 20.5568 78.3486 20.5568C78.3486 20.5568 77.3551 20.6542 76.8966 20.4401C77.6033 20.6542 77.2404 20.7904 77.2404 20.7904C77.2404 20.7904 76.6674 20.8879 76.1897 20.7126C75.7121 20.5375 74.9861 19.311 74.948 19.311Z" fill="#FFA654"/>
<path d="M76.0843 25.6302L76.1883 27.5338C76.1883 27.5338 76.1324 27.6316 76.0843 27.6886C76.0364 27.7455 74.7591 27.4851 74.9348 28.4776C74.9348 28.8845 74.9428 28.9901 75.2143 29.218C75.1423 28.9494 75.1664 28.7624 75.1664 28.7624C75.1664 28.7624 75.5256 28.9821 75.8768 28.38C75.6373 28.9739 75.8049 29.1853 75.8609 29.2018C75.9168 29.3076 75.7651 29.7874 76.2442 29.7792C76.0605 29.6002 76.1483 29.3399 76.1483 29.3399C76.1483 29.3399 76.6513 29.2587 76.4757 28.3311C76.6594 28.1441 76.7312 28.3231 76.7312 28.3231C76.7312 28.3231 76.787 28.8763 77.2261 28.7624C77.4259 28.8763 77.1943 29.1773 77.1943 29.1773C77.1943 29.1773 77.5136 29.1853 77.6094 28.9088C77.7052 28.6322 77.8169 28.1359 77.2899 27.9325C77.2261 27.7373 77.4977 27.721 77.4977 27.721C77.4977 27.721 77.833 27.8349 77.9286 28.0058C78.0246 28.1766 77.9926 27.5583 77.5774 27.4931C77.0665 27.4769 77.0345 27.3713 77.0345 27.3468C77.0345 27.3224 76.9468 25.9639 76.9069 25.5732L76.0843 25.6302Z" fill="#FFA654"/>
<path d="M77.862 27.2514C77.8683 27.1643 76.9903 25.9597 77.213 25.8039C77.4357 25.8506 77.8008 26.3986 78.0965 26.2207C78.0068 26.0072 77.7427 26.1274 77.4425 25.5808C77.1427 24.9627 77.0988 24.0349 76.0481 23.0228C76.7284 24.0939 78.2715 24.7216 78.3368 24.4093C78.4021 24.0969 76.9781 22.9162 77.0509 22.6316C77.3341 23.216 78.7641 24.5182 79.8178 24.4105C79.8899 24.1596 78.9549 23.6537 78.7143 23.1811C78.0412 22.7204 76.2402 21.1385 76.2042 20.7715C75.5487 19.7975 75.1395 19.5028 74.949 19.3907C74.8754 19.3023 74.8569 19.2178 74.8425 19.1641C74.4357 18.1867 74.9745 17.8694 75.2899 17.8224C75.5496 17.793 75.6249 17.8326 75.8117 17.7405C75.5905 17.6523 75.3694 17.5698 75.1484 17.4816C75.4368 17.6972 76.1733 17.5074 76.0137 18.1282C76.3364 18.003 77.0236 17.17 75.2348 16.982C74.6527 16.3015 72.2593 15.9104 71.6602 18.8805C71.7079 18.9221 71.7331 18.9564 71.8853 19.0722C71.1295 18.6989 69.0905 18.411 68.3558 18.2901C66.3708 17.7065 64.3094 16.3002 64.1113 16.4731C63.8462 16.593 65.3106 17.9812 65.2344 18.0119C63.9648 17.2575 62.8049 16.7231 61.7254 16.2367C60.9662 15.9475 60.2058 15.2742 60.1218 15.4023C59.8423 15.9921 61.3392 17.4749 61.6176 17.6493C61.8961 17.8161 64.0857 18.8512 64.0536 18.8641C60.7553 17.3386 60.2024 17.0621 60.0369 16.8862C59.7461 16.8195 59.0381 15.8453 58.8407 15.9079C58.7327 16.0161 58.9493 17.5555 60.5232 18.2465C60.7797 18.437 63.8967 19.5764 63.8662 19.6658C63.8586 19.6882 60.2962 18.1675 60.1577 18.1131C59.4709 17.8387 58.628 16.8767 58.4706 16.9849C58.3203 17.083 58.8591 18.1243 59.553 18.4508C59.9169 18.6144 61.3124 19.3187 62.5696 19.7669C62.6497 19.7964 60.3097 18.8627 59.1846 18.3836C58.6745 18.0951 58.4342 17.7355 58.3565 17.8129C58.2416 17.8902 58.5422 19.4284 62.1577 20.2964C62.2529 20.3377 63.4304 20.012 63.3722 20.0554C63.3575 20.066 62.203 20.3223 62.0905 20.3135C61.9905 20.2978 61.3579 20.3897 61.3466 20.4232C61.3083 20.5272 61.5758 21.0779 63.4424 20.9632C63.681 20.9484 64.9762 20.4826 64.8674 20.5829C64.813 20.633 63.1038 21.1989 62.9737 21.21C62.8605 21.2262 62.2602 21.2902 62.238 21.3553C62.211 21.4441 62.6824 21.8361 63.6849 21.8988C64.5726 21.9469 66.2591 21.3462 66.2254 21.3851C66.1916 21.4241 64.5994 21.98 64.5578 22.0139C64.5001 22.0472 63.9171 22.0792 63.8967 22.1248C63.8492 22.2385 64.7376 23.0851 67.3653 22.1816C67.1014 22.5449 65.8277 22.7933 65.8294 22.8589C65.8235 22.9063 66.1102 23.1883 66.5554 23.2894C66.7781 23.3397 67.0829 23.3294 67.3613 23.2846C67.8614 23.1825 68.3885 22.9809 69.0581 22.3503C69.1382 22.5482 67.3853 23.4521 67.4676 23.5384C67.8477 23.8976 69.1103 23.492 69.193 23.4449C69.2758 23.3979 71.6243 22.0484 71.6162 21.8922C71.6528 22.0924 68.5883 23.7889 68.6214 23.8586C68.818 24.1785 69.8649 23.8417 69.9149 23.8123C69.9648 23.7832 71.2509 23.0752 71.2862 23.0543C71.3213 23.0333 69.7747 23.9767 69.9125 24.1202C69.8459 24.7327 72.3279 23.6975 72.5223 23.5686C72.6196 23.5041 71.33 24.1463 71.3267 24.4514C71.7419 25.1667 73.0715 24.9399 73.2766 24.7824C73.3792 24.7037 73.156 25.3141 73.2279 25.2586C73.2529 25.2471 73.517 24.9288 73.6186 24.6984C73.5862 24.8983 73.4405 25.2132 73.3554 25.5744C73.2703 25.9359 73.2459 26.3436 73.129 26.7765C73.1022 26.9668 73.9484 26.4046 73.8254 25.0607C73.8979 25.7598 73.5583 27.0669 73.6471 27.1349C73.8248 27.2707 74.3162 26.4839 74.366 25.9517C74.5119 26.2205 74.8181 26.7817 75.0816 26.9107C75.053 26.504 75.0866 26.5227 74.9681 26.1231C75.0365 25.5925 75.0459 24.8581 75.0626 24.0289C75.7786 25.4267 76.0642 26.0168 75.864 27.087C76.0771 27.1774 76.4171 26.3401 76.3897 25.9089C76.6631 27.1067 77.8431 27.2863 77.862 27.2514Z" fill="#FFA654"/>
<path d="M65.9355 18.3813C65.9355 18.3813 65.4481 18.7566 64.8418 18.7345C64.9933 19.3525 66.2496 18.878 66.2496 18.878C66.2496 18.878 65.6431 19.5621 65.2099 19.6725C65.4699 19.8932 66.5636 19.8159 66.7478 19.7055C66.9319 19.5952 67.2567 19.1649 67.2567 19.1649C67.2567 19.1649 66.1304 20.4891 65.968 20.478C65.9464 20.6325 67.1485 20.5774 67.3976 20.3456C67.6466 20.1139 68.2747 19.7717 68.2747 19.7717C68.2747 19.7717 66.6285 20.9416 66.5527 20.9416C67.1701 21.107 68.4048 20.7429 69.1953 20.2464C68.0256 21.0408 67.9174 21.1842 67.3218 21.4491C67.8524 21.5706 68.1231 21.9347 69.9209 21.1401C70.9497 20.6436 71.5343 19.7386 71.5343 19.7386C70.8955 20.6105 69.8883 21.3499 68.773 22.0781C68.7079 22.2105 69.9642 22.7513 71.5669 21.0519" fill="#FFA654"/>
<path d="M74.6421 22.0649C74.6421 22.0649 74.7503 22.5836 75.1835 22.981C75.6167 23.3782 75.6492 23.7643 75.6492 23.7643" fill="#FFA654"/>
<path d="M74.4258 18.6851C74.4258 18.6851 74.5774 19.1485 75.0214 19.4465C75.4764 19.7444 76.1587 20.6825 76.2127 20.8479C76.2651 21.0482 76.5268 22.4922 76.5051 22.6467" fill="#FFA654"/>
<path d="M71.6644 19.4019C71.6969 19.5783 71.0253 20.4722 71.9459 21.5206C71.1121 22.5579 71.1121 22.6903 71.1121 22.6903C71.1121 22.6903 71.5776 22.9551 72.4116 22.2269C73.7868 23.9483 73.3287 24.7361 73.3287 24.7361" fill="#FFA654"/>
<path d="M73.2183 23.5216C73.2183 23.5216 73.0916 23.3366 73.3174 22.646C73.5209 22.8957 73.7471 22.9489 73.8462 23.05C73.9452 23.1511 74.9838 23.3042 75.0498 24.0115" fill="#FFA654"/>
<path d="M74.4401 17.042C74.4401 16.9901 74.2309 16.5329 73.4509 17.1044C73.8689 17.1304 74.282 17.3746 74.4401 17.042Z" fill="#FFA654"/>
<path d="M81.8867 19.1323C81.9248 19.1518 84.2175 19.658 84.9815 19.4049C84.0073 20.7286 82.0586 19.833 82.0586 19.833C83.0137 20.125 83.052 20.1057 83.3577 20.3782C83.4532 20.6314 81.6 20.5144 80.9887 20.1641C82.6891 20.7093 82.7272 20.6702 82.7845 20.8843C82.8611 21.1763 79.9953 20.8064 79.7469 20.417C80.5112 21.0206 80.9314 21.1375 81.3518 21.41C80.836 21.6436 79.8808 21.8771 78.1231 20.6119C80.4346 22.7533 82.5171 22.6168 82.8419 23.0062C82.0395 24.2133 78.9255 22.286 77.4926 21.3126C76.0598 20.3394 80.6258 23.6681 81.0461 23.6097C80.836 23.9406 79.3267 23.6486 79.2312 23.493" fill="#FFA654"/>
<path d="M82.4778 21.3691C82.2103 21.4066 81.4079 21.4066 81.2935 21.3879L82.4778 21.3691Z" fill="#FFA654"/>
<path d="M65.2627 18.0225C65.2627 18.0225 67.0062 18.9604 67.7425 18.8942C67.5477 19.0818 67.2551 19.1591 67.2551 19.1591C67.4393 19.2363 67.9484 19.5121 68.7173 19.3356C68.5332 19.5232 68.2948 19.7328 68.2948 19.7328C68.2948 19.7328 68.9555 19.9866 69.7027 19.5894C69.4754 19.8763 69.3454 20.0861 69.3454 20.0861L69.8651 20.1192" fill="#FFA654"/>
<path d="M69.4352 35.9355H58.3374V77.0335H69.4352V35.9355Z" fill="#EE5757"/>
<path d="M80.5321 35.9355H69.4343V77.0335H80.5321V35.9355Z" fill="#2C2929"/>
<path d="M91.6288 35.9355H80.531V77.0335H91.6288V35.9355Z" fill="#FFA654"/>
</g>
<path d="M20.7975 2.25817C11.2295 3.13882 3.29208 10.8165 2.06768 21.5697C1.46544 26.859 1 33.169 1 40.0431C1 46.9171 1.46544 53.2271 2.06768 58.5164C3.2921 69.2697 11.2295 76.9474 20.7975 77.8279C27.9647 78.4875 37.2254 79.0861 47.2408 79.0861C57.2562 79.0861 66.517 78.4875 73.6841 77.8279C83.2521 76.9474 91.1896 69.2697 92.414 58.5164C93.0163 53.2271 93.4816 46.9171 93.4816 40.0431C93.4816 33.169 93.0163 26.859 92.414 21.5697C91.1896 10.8165 83.2521 3.13882 73.6841 2.25817C66.517 1.59853 57.2562 1 47.2408 1C37.2254 1 27.9647 1.59853 20.7975 2.25817Z" stroke="#181820" stroke-opacity="0.6" stroke-width="2"/>
</g>
</svg>
