<svg width="98" height="84" viewBox="0 0 98 84" fill="none" xmlns="http://www.w3.org/2000/svg">
<g opacity="0.8">
<mask id="mask0_19_3702" style="mask-type:alpha" maskUnits="userSpaceOnUse" x="2" y="3" width="93" height="78">
<path d="M3.98757 22.6797C5.12616 12.5782 12.5101 5.28397 21.5518 4.44332C28.8984 3.76025 38.3856 3.14111 48.639 3.14111C58.8923 3.14111 68.3796 3.76025 75.7262 4.44332C84.7679 5.28397 92.1518 12.5782 93.2904 22.6797C93.9027 28.1127 94.3754 34.589 94.3754 41.6382C94.3754 48.6875 93.9027 55.1638 93.2904 60.5968C92.1518 70.6982 84.7679 77.9925 75.7262 78.8331C68.3796 79.5162 58.8923 80.1353 48.639 80.1353C38.3856 80.1353 28.8984 79.5162 21.5518 78.8331C12.5101 77.9925 5.12616 70.6982 3.98757 60.5968C3.3752 55.1638 2.90259 48.6875 2.90259 41.6382C2.90259 34.589 3.3752 28.1127 3.98757 22.6797Z" fill="#00D0BF"/>
</mask>
<g mask="url(#mask0_19_3702)">
<path d="M94.3754 60.8872H2.90259V80.1358H94.3754V60.8872Z" fill="#1C6864"/>
<path d="M94.3754 22.3877H2.90259V41.6362H94.3754V22.3877Z" fill="#75AAFA"/>
<path d="M94.3754 41.6416H2.90259V60.8902H94.3754V41.6416Z" fill="#FCD95E"/>
<path d="M94.3754 3.14111H2.90259V22.3897H94.3754V3.14111Z" fill="#75AAFA"/>
<path d="M84.8466 22.9907L75.9254 23.5758L84.4077 26.7324L75.6555 24.7062L83.1208 30.2192L75.1341 25.7197L81.0737 33.2132L74.3968 26.5472L78.406 35.5106L73.4937 27.1321L75.2992 36.9549L72.4866 27.4352L71.9652 37.4474L71.8542 22.8662L84.8466 22.9907Z" fill="#FCD95E"/>
<path d="M58.929 22.7468L67.8502 22.1616L59.3678 19.0051L68.1201 21.0313L60.6547 15.5184L68.6415 20.0178L62.7018 12.5243L69.3788 19.1904L65.3696 10.2269L70.2819 18.6053L68.4764 8.78263L71.289 18.3024L71.8102 8.29004L71.9213 22.8713L58.929 22.7468Z" fill="#FCD95E"/>
<path d="M71.8104 37.4474L71.289 27.4352L68.4764 36.9549L70.2819 27.1321L65.3698 35.5106L69.379 26.5472L62.7018 33.2132L68.6416 25.7197L60.6547 30.2192L68.1203 24.7062L59.3678 26.7324L67.8504 23.5758L58.929 22.9907L71.9213 22.8662L71.8104 37.4474Z" fill="#FCD95E"/>
<path d="M71.9652 8.29004L72.4866 18.3024L75.2992 8.78265L73.4937 18.6053L78.4058 10.2269L74.3966 19.1904L81.0737 12.5243L75.1339 20.0178L83.1208 15.5184L75.6553 21.0313L84.4075 19.0051L75.9252 22.1616L84.8466 22.7468L71.8542 22.8713L71.9652 8.29004Z" fill="#FCD95E"/>
<path d="M71.9651 27.2658C74.0669 27.2658 75.7707 25.3535 75.7707 22.9947C75.7707 20.6359 74.0669 18.7236 71.9651 18.7236C69.8633 18.7236 68.1594 20.6359 68.1594 22.9947C68.1594 25.3535 69.8633 27.2658 71.9651 27.2658Z" fill="#FCD95E" stroke="#00A1DE" stroke-width="0.197952"/>
</g>
<path d="M21.3975 2.3095C11.5395 3.22607 3.36154 11.217 2.10004 22.4089C1.47955 27.914 1 34.4814 1 41.6358C1 48.7903 1.47955 55.3577 2.10004 60.8628C3.36156 72.0548 11.5395 80.0457 21.3975 80.9621C28.7818 81.6487 38.3232 82.2717 48.6421 82.2717C58.961 82.2717 68.5023 81.6487 75.8867 80.9621C85.7446 80.0457 93.9226 72.0548 95.1842 60.8628C95.8047 55.3577 96.2841 48.7903 96.2841 41.6358C96.2841 34.4814 95.8047 27.914 95.1842 22.4089C93.9226 11.217 85.7446 3.22607 75.8867 2.3095C68.5023 1.62295 58.961 1 48.6421 1C38.3232 1 28.7818 1.62295 21.3975 2.3095Z" stroke="#181820" stroke-opacity="0.6" stroke-width="2"/>
</g>
</svg>
