<svg width="38" height="31" viewBox="0 0 38 31" fill="none" xmlns="http://www.w3.org/2000/svg">
<mask id="path-1-inside-1_21_4708" fill="white">
<path d="M15.165 0C23.5405 7.44848e-05 30.3308 6.78675 30.3311 15.1582C30.3311 23.5299 23.5407 30.3163 15.165 30.3164C6.7895 30.3162 0 23.5298 0 15.1582C0.000268758 6.78685 6.78967 0.000228083 15.165 0ZM23.3389 0.0507812C31.1293 0.686422 37.2536 7.20764 37.2539 15.1582C37.2539 23.109 31.1295 29.6299 23.3389 30.2656C28.7027 27.3604 32.3457 21.6843 32.3457 15.1582C32.3455 8.63214 28.7027 2.95583 23.3389 0.0507812ZM16.3008 5.78613C15.3182 5.78624 14.7284 6.17833 14.1143 6.61914C13.2543 7.25594 11.8292 8.11313 10.5762 8.77441C9.6919 9.23974 9.52003 10.1462 9.9375 10.8809C10.3552 11.6156 11.1912 11.885 12.002 11.4932C12.6407 11.1992 13.7212 10.6117 14.4336 10.1465V21.3398H11.0928C10.233 21.3398 9.69254 21.9026 9.69238 22.8086C9.69238 23.6903 10.2328 24.2783 11.0928 24.2783H20.625C21.4849 24.2783 22.0254 23.7148 22.0254 22.8086C22.0252 21.9026 21.4848 21.3398 20.625 21.3398H18.1191V7.40332C18.1191 6.37463 17.2836 5.78613 16.3008 5.78613Z"/>
</mask>
<g filter="url(#filter0_i_21_4708)">
<path d="M15.165 0C23.5405 7.44848e-05 30.3308 6.78675 30.3311 15.1582C30.3311 23.5299 23.5407 30.3163 15.165 30.3164C6.7895 30.3162 0 23.5298 0 15.1582C0.000268758 6.78685 6.78967 0.000228083 15.165 0ZM23.3389 0.0507812C31.1293 0.686422 37.2536 7.20764 37.2539 15.1582C37.2539 23.109 31.1295 29.6299 23.3389 30.2656C28.7027 27.3604 32.3457 21.6843 32.3457 15.1582C32.3455 8.63214 28.7027 2.95583 23.3389 0.0507812ZM16.3008 5.78613C15.3182 5.78624 14.7284 6.17833 14.1143 6.61914C13.2543 7.25594 11.8292 8.11313 10.5762 8.77441C9.6919 9.23974 9.52003 10.1462 9.9375 10.8809C10.3552 11.6156 11.1912 11.885 12.002 11.4932C12.6407 11.1992 13.7212 10.6117 14.4336 10.1465V21.3398H11.0928C10.233 21.3398 9.69254 21.9026 9.69238 22.8086C9.69238 23.6903 10.2328 24.2783 11.0928 24.2783H20.625C21.4849 24.2783 22.0254 23.7148 22.0254 22.8086C22.0252 21.9026 21.4848 21.3398 20.625 21.3398H18.1191V7.40332C18.1191 6.37463 17.2836 5.78613 16.3008 5.78613Z" fill="#11100F" fill-opacity="0.32"/>
</g>
<path d="M15.165 0L15.165 -1H15.165L15.165 0ZM30.3311 15.1582H31.3311V15.1582L30.3311 15.1582ZM15.165 30.3164L15.165 31.3164H15.165L15.165 30.3164ZM0 15.1582L-1 15.1582V15.1582H0ZM23.3389 0.0507812L23.4202 -0.945907L22.8626 0.930099L23.3389 0.0507812ZM37.2539 15.1582H38.2539V15.1582L37.2539 15.1582ZM23.3389 30.2656L22.8626 29.3863L23.4202 31.2623L23.3389 30.2656ZM32.3457 15.1582H33.3457V15.1582L32.3457 15.1582ZM16.3008 5.78613V4.78613H16.3007L16.3008 5.78613ZM14.1143 6.61914L13.5312 5.80674L13.5251 5.81108L13.5191 5.8155L14.1143 6.61914ZM10.5762 8.77441L11.0419 9.65936L11.0429 9.65881L10.5762 8.77441ZM9.9375 10.8809L9.06806 11.3749L9.06814 11.375L9.9375 10.8809ZM12.002 11.4932L11.5839 10.5847L11.5753 10.5887L11.5668 10.5928L12.002 11.4932ZM14.4336 10.1465H15.4336V8.29904L13.8868 9.30922L14.4336 10.1465ZM14.4336 21.3398V22.3398H15.4336V21.3398H14.4336ZM9.69238 22.8086L8.69238 22.8084V22.8086H9.69238ZM22.0254 22.8086H23.0254V22.8084L22.0254 22.8086ZM18.1191 21.3398H17.1191V22.3398H18.1191V21.3398ZM15.165 0L15.165 1C22.9887 1.00007 29.3308 7.33952 29.3311 15.1582L30.3311 15.1582L31.3311 15.1582C31.3308 6.23398 24.0924 -0.999921 15.165 -1L15.165 0ZM30.3311 15.1582H29.3311C29.3311 22.9771 22.9889 29.3163 15.165 29.3164L15.165 30.3164L15.165 31.3164C24.0925 31.3163 31.3311 24.0827 31.3311 15.1582H30.3311ZM15.165 30.3164L15.1651 29.3164C7.34135 29.3162 1 22.9771 1 15.1582H0H-1C-1 24.0825 6.23766 31.3162 15.165 31.3164L15.165 30.3164ZM0 15.1582L1 15.1582C1.00025 7.33955 7.34155 1.00021 15.1651 1L15.165 0L15.165 -1C6.23779 -0.999757 -0.999713 6.23414 -1 15.1582L0 15.1582ZM23.3389 0.0507812L23.2575 1.04747C30.5337 1.64114 36.2537 7.73306 36.2539 15.1582L37.2539 15.1582L38.2539 15.1582C38.2536 6.68222 31.725 -0.268297 23.4202 -0.945907L23.3389 0.0507812ZM37.2539 15.1582H36.2539C36.2539 22.5835 30.5338 28.6752 23.2575 29.2689L23.3389 30.2656L23.4202 31.2623C31.7251 30.5847 38.2539 23.6344 38.2539 15.1582H37.2539ZM23.3389 30.2656L23.8151 31.1449C29.4885 28.0721 33.3457 22.0661 33.3457 15.1582H32.3457H31.3457C31.3457 21.3026 27.9168 26.6488 22.8626 29.3863L23.3389 30.2656ZM32.3457 15.1582L33.3457 15.1582C33.3455 8.25046 29.4886 2.2442 23.8151 -0.828536L23.3389 0.0507812L22.8626 0.930099C27.9168 3.66745 31.3455 9.01382 31.3457 15.1582L32.3457 15.1582ZM16.3008 5.78613L16.3007 4.78613C14.9869 4.78628 14.1776 5.34273 13.5312 5.80674L14.1143 6.61914L14.6974 7.43154C15.2792 7.01394 15.6496 6.7862 16.3009 6.78613L16.3008 5.78613ZM14.1143 6.61914L13.5191 5.8155C12.7153 6.41079 11.3386 7.24134 10.1094 7.89002L10.5762 8.77441L11.0429 9.65881C12.3198 8.98492 13.7934 8.1011 14.7094 7.42278L14.1143 6.61914ZM10.5762 8.77441L10.1105 7.88946C9.44369 8.24035 8.98283 8.79844 8.80302 9.46683C8.62633 10.1236 8.74325 10.8033 9.06806 11.3749L9.9375 10.8809L10.8069 10.3868C10.7143 10.2238 10.7084 10.0829 10.7343 9.98642C10.7572 9.90159 10.8244 9.7738 11.0419 9.65936L10.5762 8.77441ZM9.9375 10.8809L9.06814 11.375C9.75202 12.5781 11.1635 13.0091 12.4371 12.3935L12.002 11.4932L11.5668 10.5928C11.2189 10.761 10.9583 10.6532 10.8069 10.3867L9.9375 10.8809ZM12.002 11.4932L12.42 12.4016C13.1015 12.088 14.2252 11.4769 14.9804 10.9837L14.4336 10.1465L13.8868 9.30922C13.2172 9.7465 12.1799 10.3105 11.5839 10.5847L12.002 11.4932ZM14.4336 10.1465H13.4336V21.3398H14.4336H15.4336V10.1465H14.4336ZM14.4336 21.3398V20.3398H11.0928V21.3398V22.3398H14.4336V21.3398ZM11.0928 21.3398V20.3398C10.4383 20.3398 9.80952 20.5597 9.34715 21.0437C8.88963 21.5226 8.69249 22.1576 8.69238 22.8084L9.69238 22.8086L10.6924 22.8088C10.6924 22.5536 10.7656 22.4542 10.7933 22.4253C10.8161 22.4014 10.8875 22.3398 11.0928 22.3398V21.3398ZM9.69238 22.8086H8.69238C8.69238 23.4531 8.8926 24.0831 9.34264 24.5603C9.79882 25.0439 10.4255 25.2783 11.0928 25.2783V24.2783V23.2783C10.9001 23.2783 10.8266 23.2187 10.7976 23.188C10.7624 23.1507 10.6924 23.0458 10.6924 22.8086H9.69238ZM11.0928 24.2783V25.2783H20.625V24.2783V23.2783H11.0928V24.2783ZM20.625 24.2783V25.2783C21.2799 25.2783 21.9088 25.058 22.371 24.5738C22.8284 24.0947 23.0254 23.4595 23.0254 22.8086H22.0254H21.0254C21.0254 23.0639 20.9522 23.1636 20.9243 23.1928C20.9014 23.2168 20.83 23.2783 20.625 23.2783V24.2783ZM22.0254 22.8086L23.0254 22.8084C23.0253 22.1576 22.8281 21.5226 22.3706 21.0437C21.9083 20.5597 21.2795 20.3398 20.625 20.3398V21.3398V22.3398C20.8303 22.3398 20.9017 22.4014 20.9245 22.4253C20.9522 22.4542 21.0253 22.5536 21.0254 22.8088L22.0254 22.8086ZM20.625 21.3398V20.3398H18.1191V21.3398V22.3398H20.625V21.3398ZM18.1191 21.3398H19.1191V7.40332H18.1191H17.1191V21.3398H18.1191ZM18.1191 7.40332H19.1191C19.1191 6.59213 18.7783 5.90585 18.2177 5.4399C17.6762 4.98986 16.9831 4.78613 16.3008 4.78613V5.78613V6.78613C16.6012 6.78613 16.8173 6.87665 16.9393 6.97803C17.0422 7.06351 17.1191 7.18582 17.1191 7.40332H18.1191Z" fill="#2A2723" mask="url(#path-1-inside-1_21_4708)"/>
<defs>
<filter id="filter0_i_21_4708" x="-1" y="0" width="38.2539" height="31.3164" filterUnits="userSpaceOnUse" color-interpolation-filters="sRGB">
<feFlood flood-opacity="0" result="BackgroundImageFix"/>
<feBlend mode="normal" in="SourceGraphic" in2="BackgroundImageFix" result="shape"/>
<feColorMatrix in="SourceAlpha" type="matrix" values="0 0 0 0 0 0 0 0 0 0 0 0 0 0 0 0 0 0 127 0" result="hardAlpha"/>
<feOffset dx="-1" dy="1"/>
<feGaussianBlur stdDeviation="2"/>
<feComposite in2="hardAlpha" operator="arithmetic" k2="-1" k3="1"/>
<feColorMatrix type="matrix" values="0 0 0 0 0 0 0 0 0 0 0 0 0 0 0 0 0 0 0.25 0"/>
<feBlend mode="normal" in2="shape" result="effect1_innerShadow_21_4708"/>
</filter>
</defs>
</svg>
