<svg width="27" height="30" viewBox="0 0 27 30" fill="none" xmlns="http://www.w3.org/2000/svg">
<g opacity="0.981">
<g filter="url(#filter0_i_19_3247)">
<path fill-rule="evenodd" clip-rule="evenodd" d="M10.2262 1.28267e-05C12.0288 -0.00401892 13.1984 0.942405 13.7354 2.83927C13.7992 3.73713 13.8204 4.63622 13.7992 5.53656C15.5862 5.51291 17.3726 5.53658 19.1586 5.60754C20.4021 5.94972 21.104 6.82516 21.2641 8.23386C21.3279 10.1261 21.3492 12.019 21.3279 13.9124C22.2222 13.8888 23.1154 13.9124 24.0076 13.9834C26.0993 15.0482 26.7161 16.7753 25.8579 19.165C25.3449 20.0067 24.6431 20.5508 23.7524 20.7976C22.9453 20.8685 22.1372 20.8921 21.3279 20.8685C21.3492 22.7619 21.3279 24.6548 21.2641 26.5471C21.0744 28.0831 20.2875 28.9586 18.9034 29.1734C17.3296 29.2681 15.7557 29.2681 14.182 29.1734C14.0786 28.3569 14.0148 27.5289 13.9906 26.689C13.6258 24.6746 12.5198 23.5389 10.6728 23.2819C8.88188 23.5241 7.77605 24.6125 7.35508 26.5471C7.33109 27.434 7.26729 28.3095 7.16367 29.1734C5.58987 29.2681 4.01606 29.2681 2.44226 29.1734C1.32589 29.0621 0.581515 28.4232 0.209161 27.2569C0.0290967 25.2292 -0.0347062 23.1945 0.0177525 21.1525C0.827041 21.176 1.63521 21.1525 2.44226 21.0815C4.18354 20.6107 5.16186 19.3805 5.37719 17.3905C5.17323 15.4608 4.23746 14.2304 2.56987 13.6994C1.76281 13.6284 0.954646 13.6049 0.145358 13.6284C0.124099 11.5931 0.145371 9.5583 0.209161 7.52404C0.550978 6.48135 1.21028 5.84252 2.18705 5.60754C3.97302 5.53658 5.7595 5.51291 7.54649 5.53656C7.52531 4.58896 7.54649 3.64254 7.61029 2.69731C8.0259 1.22801 8.89796 0.328898 10.2262 1.28267e-05Z" fill="#11100F" fill-opacity="0.32"/>
</g>
<path d="M10.2871 0.500977C11.0682 0.509408 11.6737 0.717949 12.1406 1.0957C12.6151 1.47959 12.9901 2.07487 13.2393 2.92969C13.2989 3.79341 13.3192 4.65824 13.2988 5.52441L13.2871 6.04297L13.8057 6.03613C15.563 6.01287 17.3199 6.0358 19.0762 6.10449C19.5863 6.25374 19.9607 6.50115 20.2275 6.83398C20.5031 7.17779 20.691 7.64703 20.7646 8.27344C20.8276 10.1506 20.8493 12.0289 20.8281 13.9072L20.8223 14.4258L21.3408 14.4121C22.1826 14.3899 23.0235 14.4114 23.8633 14.4746C24.7776 14.9584 25.3214 15.5536 25.5684 16.2451C25.8213 16.9535 25.791 17.8406 25.4033 18.9443C24.9618 19.6499 24.383 20.0929 23.6543 20.3037C22.8848 20.3693 22.1144 20.3916 21.3428 20.3691L20.8223 20.3535L20.8281 20.874C20.8492 22.7485 20.8283 24.6227 20.7656 26.4961C20.6785 27.1886 20.465 27.6823 20.1602 28.0215C19.8618 28.3535 19.4388 28.5793 18.8506 28.6748C17.4437 28.7586 16.0368 28.7648 14.6299 28.6953C14.5571 28.03 14.5099 27.3566 14.4902 26.6748L14.4893 26.6367L14.4824 26.5996C14.2874 25.523 13.886 24.6348 13.2461 23.9775C12.6026 23.3168 11.7553 22.9281 10.7422 22.7871L10.6738 22.7773L10.6055 22.7861C9.62131 22.9193 8.79154 23.2919 8.14941 23.9238C7.51054 24.5527 7.09169 25.4044 6.86621 26.4404L6.85645 26.4863L6.85547 26.5332C6.83574 27.2625 6.78633 27.9836 6.71191 28.6963C5.30106 28.7658 3.89035 28.7585 2.47949 28.6738C2.0141 28.6254 1.6532 28.4727 1.37207 28.2314C1.09451 27.9932 0.865231 27.6433 0.701172 27.1514C0.541262 25.3266 0.477634 23.4959 0.507812 21.6592C1.16793 21.6628 1.82762 21.637 2.48633 21.5791L2.53027 21.5762L2.57227 21.5645C3.52998 21.3055 4.30796 20.8277 4.87305 20.1172C5.43521 19.4102 5.75892 18.5079 5.87402 17.4443L5.87988 17.3906L5.87402 17.3379C5.76486 16.3052 5.45562 15.4221 4.91992 14.7178C4.38175 14.0103 3.63995 13.515 2.72168 13.2227L2.66895 13.2061L2.61328 13.2012C1.95709 13.1435 1.30017 13.1167 0.642578 13.1201C0.629751 11.2851 0.649503 9.4504 0.706055 7.61621C0.998229 6.77688 1.51197 6.29882 2.25879 6.10547C4.01866 6.03645 5.77918 6.01283 7.54004 6.03613L8.05762 6.04297L8.0459 5.52539C8.02545 4.6108 8.04549 3.69739 8.10547 2.78516C8.47686 1.51748 9.20304 0.788615 10.2871 0.500977Z" stroke="#2A2723"/>
</g>
<defs>
<filter id="filter0_i_19_3247" x="-1" y="0" width="27.2324" height="30.2446" filterUnits="userSpaceOnUse" color-interpolation-filters="sRGB">
<feFlood flood-opacity="0" result="BackgroundImageFix"/>
<feBlend mode="normal" in="SourceGraphic" in2="BackgroundImageFix" result="shape"/>
<feColorMatrix in="SourceAlpha" type="matrix" values="0 0 0 0 0 0 0 0 0 0 0 0 0 0 0 0 0 0 127 0" result="hardAlpha"/>
<feOffset dx="-1" dy="1"/>
<feGaussianBlur stdDeviation="2"/>
<feComposite in2="hardAlpha" operator="arithmetic" k2="-1" k3="1"/>
<feColorMatrix type="matrix" values="0 0 0 0 0 0 0 0 0 0 0 0 0 0 0 0 0 0 0.25 0"/>
<feBlend mode="normal" in2="shape" result="effect1_innerShadow_19_3247"/>
</filter>
</defs>
</svg>
