<svg width="31" height="37" viewBox="0 0 31 37" fill="none" xmlns="http://www.w3.org/2000/svg">
<g filter="url(#filter0_i_19_3238)">
<path d="M15.3042 6.07954C12.2773 6.07954 9.31843 6.97094 6.80166 8.64102C4.28489 10.3111 2.32331 12.6848 1.16497 15.4621C0.00663078 18.2393 -0.296444 21.2953 0.294074 24.2436C0.884591 27.1918 2.34218 29.9 4.48251 32.0256C6.62285 34.1512 9.3498 35.5988 12.3185 36.1852C15.2873 36.7717 18.3644 36.4707 21.1609 35.3203C23.9574 34.17 26.3476 32.2219 28.0292 29.7224C29.7109 27.223 30.6085 24.2845 30.6085 21.2784C30.6039 17.2488 28.99 13.3856 26.1209 10.5362C23.2518 7.68687 19.3618 6.0841 15.3042 6.07954ZM15.3042 32.8295C13.0038 32.8295 10.755 32.1521 8.84228 30.8828C6.92954 29.6136 5.43874 27.8095 4.5584 25.6988C3.67806 23.5881 3.44772 21.2656 3.89651 19.0249C4.34531 16.7842 5.45307 14.726 7.07973 13.1105C8.70638 11.4951 10.7789 10.3949 13.0351 9.94922C15.2913 9.50352 17.63 9.73227 19.7553 10.6065C21.8806 11.4808 23.6972 12.9614 24.9752 14.8609C26.2533 16.7605 26.9355 18.9938 26.9355 21.2784C26.932 24.3409 25.7054 27.277 23.5249 29.4425C21.3444 31.608 18.388 32.8261 15.3042 32.8295ZM21.7973 14.8301C22.1417 15.1722 22.3352 15.6361 22.3352 16.1198C22.3352 16.6035 22.1417 17.0674 21.7973 17.4095L16.6029 22.5681C16.4324 22.7376 16.2299 22.8722 16.007 22.964C15.7842 23.0558 15.5453 23.1031 15.304 23.1032C15.0627 23.1033 14.8238 23.0561 14.6008 22.9645C14.3779 22.8728 14.1753 22.7384 14.0047 22.569C13.8341 22.3995 13.6988 22.1984 13.6065 21.977C13.5142 21.7556 13.4667 21.5183 13.4668 21.2787C13.4669 21.039 13.5145 20.8018 13.607 20.5805C13.6994 20.3591 13.8349 20.1581 14.0056 19.9887L19.2001 14.8301C19.5445 14.4881 20.0116 14.2959 20.4987 14.2959C20.9858 14.2959 21.4529 14.4881 21.7973 14.8301ZM9.79471 1.82386C9.79471 1.34014 9.9882 0.876238 10.3326 0.534197C10.677 0.192156 11.1442 0 11.6312 0L18.9773 0C19.4643 0 19.9314 0.192156 20.2759 0.534197C20.6203 0.876238 20.8138 1.34014 20.8138 1.82386C20.8138 2.30758 20.6203 2.77149 20.2759 3.11353C19.9314 3.45557 19.4643 3.64773 18.9773 3.64773H11.6312C11.1442 3.64773 10.677 3.45557 10.3326 3.11353C9.9882 2.77149 9.79471 2.30758 9.79471 1.82386Z" fill="#11100F" fill-opacity="0.32"/>
</g>
<path d="M15.3037 6.5791C19.2298 6.58352 22.9934 8.13464 25.7686 10.8906C28.4569 13.5605 30.0053 17.1503 30.1035 20.9141L30.1084 21.2793C30.1082 24.1854 29.2404 27.0265 27.6143 29.4434C25.988 31.8605 23.6762 33.7455 20.9707 34.8584C18.2652 35.9713 15.2874 36.2617 12.415 35.6943C9.54285 35.1269 6.90503 33.7267 4.83496 31.6709C2.76484 29.615 1.35515 26.9961 0.78418 24.1455C0.213226 21.2949 0.50592 18.3397 1.62598 15.6543C2.74605 12.9688 4.64354 10.6732 7.07812 9.05762C9.51261 7.44215 12.3751 6.57921 15.3037 6.5791ZM19.9453 10.1445C17.7291 9.23289 15.2909 8.99431 12.9385 9.45898C10.5859 9.92371 8.42434 11.0707 6.72754 12.7559C5.0307 14.441 3.8746 16.5884 3.40625 18.9268C2.93791 21.2651 3.17806 23.6891 4.09668 25.8916C5.01528 28.0939 6.57061 29.9761 8.56543 31.2998C10.4357 32.5409 12.6141 33.2389 14.8555 33.3213L15.3047 33.3291C18.5197 33.3255 21.6025 32.0556 23.877 29.7969C26.1514 27.5381 27.4318 24.4752 27.4355 21.2793V21.2783C27.4355 18.8941 26.7231 16.5639 25.3896 14.582C24.0562 12.6002 22.1616 11.0562 19.9453 10.1445ZM20.499 14.7959C20.8545 14.796 21.195 14.936 21.4453 15.1846C21.6956 15.4331 21.835 15.7701 21.835 16.1201C21.8349 16.4262 21.7275 16.7215 21.5332 16.957L21.4453 17.0547L16.251 22.2129L16.25 22.2139C16.1261 22.337 15.9787 22.4351 15.8164 22.502C15.654 22.5688 15.4797 22.6035 15.3037 22.6035C15.1277 22.6036 14.9535 22.5687 14.791 22.502C14.6285 22.4351 14.4814 22.337 14.3574 22.2139C14.2334 22.0907 14.1353 21.9446 14.0684 21.7842C14.0016 21.6239 13.9668 21.4525 13.9668 21.2793C13.9669 21.1059 14.0014 20.9338 14.0684 20.7734C14.1353 20.6131 14.2334 20.4668 14.3574 20.3438H14.3584L19.5527 15.1846C19.8031 14.9361 20.1436 14.7959 20.499 14.7959ZM11.6309 0.5H18.9775C19.333 0.500075 19.6735 0.640079 19.9238 0.888672C20.1741 1.13721 20.3135 1.47423 20.3135 1.82422C20.3134 2.17402 20.1739 2.51034 19.9238 2.75879C19.6735 3.00738 19.333 3.14739 18.9775 3.14746H11.6309C11.2754 3.14737 10.9349 3.00736 10.6846 2.75879C10.4345 2.51035 10.295 2.174 10.2949 1.82422C10.2949 1.47425 10.4343 1.13721 10.6846 0.888672C10.9349 0.640098 11.2754 0.500096 11.6309 0.5Z" stroke="#2A2723"/>
<defs>
<filter id="filter0_i_19_3238" x="-1" y="0" width="31.6085" height="37.4771" filterUnits="userSpaceOnUse" color-interpolation-filters="sRGB">
<feFlood flood-opacity="0" result="BackgroundImageFix"/>
<feBlend mode="normal" in="SourceGraphic" in2="BackgroundImageFix" result="shape"/>
<feColorMatrix in="SourceAlpha" type="matrix" values="0 0 0 0 0 0 0 0 0 0 0 0 0 0 0 0 0 0 127 0" result="hardAlpha"/>
<feOffset dx="-1" dy="1"/>
<feGaussianBlur stdDeviation="2"/>
<feComposite in2="hardAlpha" operator="arithmetic" k2="-1" k3="1"/>
<feColorMatrix type="matrix" values="0 0 0 0 0 0 0 0 0 0 0 0 0 0 0 0 0 0 0.25 0"/>
<feBlend mode="normal" in2="shape" result="effect1_innerShadow_19_3238"/>
</filter>
</defs>
</svg>
